Hanif_Medium_7_5_grf.mot
version=1
nRows=63
nColumns=19
inDegrees=yes
endheader
time	right_ground_force_vx	right_ground_force_vy	right_ground_force_vz	right_ground_force_px	right_ground_force_py	right_ground_force_pz	right_ground_torque_x	right_ground_torque_y	right_ground_torque_z	left_ground_force_vx	left_ground_force_vy	left_ground_force_vz	left_ground_force_px	left_ground_force_py	left_ground_force_pz	left_ground_torque_x	left_ground_torque_y	left_ground_torque_z
2.900000	2.467980	288.308000	66.623600	0.170910	0.000000	-1.452550	-15.389200	4.368800	-7.855560	4.804170	302.137000	-67.883500	0.170331	0.000000	-0.966535	19.107100	-7.930680	-7.703400
2.905000	2.252220	285.121000	66.513100	0.170830	0.000000	-1.451860	-15.418700	4.261000	-7.804020	4.802930	301.076000	-68.392700	0.169486	0.000000	-0.966027	18.886000	-8.032420	-7.905250
2.910000	1.137470	281.949000	66.255200	0.171629	0.000000	-1.451440	-15.374900	4.203580	-7.467620	5.174530	298.627000	-67.372400	0.168588	0.000000	-0.965800	18.656300	-8.065410	-8.111730
2.915000	0.041398	282.124000	65.317600	0.171464	0.000000	-1.452210	-15.175500	4.130540	-7.526570	5.170830	299.643000	-67.858800	0.168377	0.000000	-0.966292	18.871100	-7.915930	-8.243010
2.920000	-0.285315	279.890000	64.592300	0.171593	0.000000	-1.451290	-15.314100	4.092260	-7.426140	5.343790	300.416000	-67.530500	0.168501	0.000000	-0.965420	18.653200	-8.011570	-8.214940
2.925000	-0.881967	282.474000	63.811400	0.172623	0.000000	-1.451430	-15.421700	4.035970	-7.205330	5.356350	299.323000	-67.502900	0.168331	0.000000	-0.967084	19.081600	-8.079520	-8.216590
2.930000	-1.448980	284.706000	64.294500	0.172655	0.000000	-1.450450	-15.829000	4.142770	-7.228720	5.249070	301.023000	-67.409300	0.167932	0.000000	-0.965117	18.602600	-8.003960	-8.418030
2.935000	-0.523694	287.650000	64.090000	0.173314	0.000000	-1.452030	-15.528100	4.199100	-7.115360	4.995950	301.165000	-67.161100	0.167636	0.000000	-0.965958	18.868900	-8.019820	-8.513290
2.940000	1.372060	290.150000	64.881500	0.172917	0.000000	-1.449890	-16.267400	4.458760	-7.271360	4.973340	302.503000	-67.089900	0.167809	0.000000	-0.966320	19.063200	-8.024290	-8.506910
2.945000	2.831950	293.154000	65.032800	0.171989	0.000000	-1.451020	-16.092500	4.700120	-7.607430	5.396170	302.181000	-67.258900	0.167815	0.000000	-0.966448	19.074300	-8.021990	-8.498140
2.950000	4.587130	297.810000	65.634600	0.171248	0.000000	-1.450830	-16.388300	4.866090	-7.961920	4.216820	301.672000	-67.119400	0.167580	0.000000	-0.965998	18.928400	-7.905870	-8.564420
2.955000	5.956650	299.249000	66.502800	0.170471	0.000000	-1.450280	-16.619500	5.049700	-8.224560	4.441860	303.676000	-66.790100	0.167265	0.000000	-0.965759	18.977900	-7.965230	-8.731020
2.960000	6.876330	300.700000	67.244600	0.169162	0.000000	-1.452140	-16.134900	5.129390	-8.672440	4.556200	302.273000	-67.088500	0.166675	0.000000	-0.966974	19.254500	-8.039350	-8.849730
2.965000	7.132520	300.643000	68.118000	0.168657	0.000000	-1.451890	-16.206500	5.158740	-8.825460	4.300880	304.329000	-66.959500	0.167604	0.000000	-0.965204	18.853900	-7.861010	-8.665660
2.970000	7.431320	299.746000	68.578500	0.168002	0.000000	-1.453170	-15.769100	5.286340	-8.973650	4.190050	302.900000	-67.080200	0.166293	0.000000	-0.965459	18.845500	-7.812820	-9.038400
2.975000	6.998880	298.723000	68.978000	0.167365	0.000000	-1.452980	-15.775800	5.274600	-9.136490	3.822540	302.097000	-66.917300	0.166803	0.000000	-0.965942	18.948400	-7.699590	-8.868670
2.980000	6.890010	297.009000	68.464000	0.166804	0.000000	-1.453420	-15.558200	5.181890	-9.272470	3.915570	301.125000	-66.298300	0.165743	0.000000	-0.965604	18.782900	-7.801270	-9.152120
2.985000	7.249830	295.656000	69.378800	0.166155	0.000000	-1.453910	-15.337300	5.257140	-9.412340	3.813490	300.214000	-66.411500	0.166279	0.000000	-0.964399	18.364600	-7.833880	-8.937750
2.990000	6.457690	295.236000	69.590000	0.165992	0.000000	-1.454770	-15.072700	5.081420	-9.478600	3.812980	300.493000	-66.030600	0.165818	0.000000	-0.965244	18.635500	-7.872020	-9.089730
2.995000	6.138960	292.402000	68.948200	0.165534	0.000000	-1.455190	-14.808500	5.044120	-9.522480	4.379220	300.752000	-65.976000	0.165343	0.000000	-0.964776	18.504300	-7.709550	-9.292960
3.000000	5.729690	290.034000	68.980200	0.164995	0.000000	-1.454680	-14.839300	5.068610	-9.591250	3.701000	299.583000	-65.868500	0.164450	0.000000	-0.964434	18.341100	-7.692100	-9.523790
3.005000	5.792890	289.375000	68.707300	0.164608	0.000000	-1.455550	-14.555000	4.958160	-9.711220	2.694430	298.633000	-66.015600	0.164752	0.000000	-0.966044	18.779900	-7.729230	-9.369440
3.010000	5.491780	285.973000	68.097200	0.164335	0.000000	-1.456230	-14.188300	4.950510	-9.663780	3.217050	299.268000	-65.894900	0.164151	0.000000	-0.965453	18.636200	-7.585970	-9.622500
3.015000	4.561500	283.873000	67.639900	0.164918	0.000000	-1.454660	-14.537500	4.839940	-9.426680	3.523640	302.765000	-66.113400	0.164782	0.000000	-0.964571	18.583600	-7.512770	-9.578050
3.020000	4.264500	279.870000	66.265000	0.163833	0.000000	-1.454930	-14.261500	4.720090	-9.623360	3.453440	299.929000	-66.333100	0.164136	0.000000	-0.965477	18.681700	-7.540960	-9.662840
3.025000	3.655620	278.218000	65.600700	0.163467	0.000000	-1.455460	-14.033100	4.735150	-9.656440	3.239340	299.071000	-65.425500	0.163150	0.000000	-0.965313	18.581400	-7.668340	-9.914830
3.030000	2.586260	274.608000	64.409800	0.164112	0.000000	-1.454130	-14.222400	4.737080	-9.317540	3.456590	298.636000	-65.701300	0.162831	0.000000	-0.964900	18.429300	-7.526370	-10.028400
3.035000	1.930010	272.344000	63.504400	0.163824	0.000000	-1.453580	-14.259700	4.708160	-9.313720	2.943340	300.674000	-65.743400	0.163195	0.000000	-0.965516	18.747600	-7.627800	-9.967710
3.040000	1.252110	271.436000	61.781600	0.165113	0.000000	-1.454060	-14.088400	4.577760	-8.933110	3.385890	298.967000	-65.315800	0.162931	0.000000	-0.966194	18.837200	-7.550170	-10.008600
3.045000	0.488260	270.235000	60.574000	0.165468	0.000000	-1.453550	-14.170600	4.622680	-8.770170	3.852530	299.969000	-64.564600	0.162348	0.000000	-0.965070	18.557100	-7.497170	-10.255500
3.050000	-0.221264	267.817000	59.793100	0.165682	0.000000	-1.452080	-14.442800	4.558420	-8.628750	3.499440	299.374000	-65.223900	0.161423	0.000000	-0.964969	18.495800	-7.536130	-10.502400
3.055000	-1.016510	268.721000	58.502400	0.167130	0.000000	-1.451270	-14.716500	4.306980	-8.301770	3.900560	299.641000	-65.047700	0.161352	0.000000	-0.964640	18.408200	-7.482970	-10.554000
3.060000	-1.679610	272.214000	58.224100	0.167176	0.000000	-1.450490	-15.127000	4.500190	-8.361530	4.210080	299.969000	-64.722700	0.161658	0.000000	-0.965748	18.756300	-7.450310	-10.486400
3.065000	-1.262480	274.888000	57.762100	0.169093	0.000000	-1.449690	-15.492600	4.594520	-7.890710	3.784870	299.157000	-64.887500	0.160767	0.000000	-0.966528	18.948500	-7.236650	-10.771700
3.070000	-0.678274	276.472000	57.682800	0.168793	0.000000	-1.448970	-15.774100	4.666890	-8.021680	3.894210	299.218000	-65.060500	0.161555	0.000000	-0.965817	18.735900	-7.352930	-10.501900
3.075000	-0.161601	280.226000	58.246800	0.168507	0.000000	-1.449030	-15.964900	4.773830	-8.212240	3.618240	298.825000	-63.976900	0.161569	0.000000	-0.966217	18.835200	-7.273840	-10.502300
3.080000	1.376590	281.893000	58.211900	0.169115	0.000000	-1.448510	-16.192900	4.773300	-8.108170	3.506250	298.452000	-63.920900	0.161085	0.000000	-0.966779	18.982400	-7.192730	-10.654200
3.085000	1.940170	286.580000	59.199100	0.168688	0.000000	-1.449220	-16.250900	4.923020	-8.362210	2.813000	299.232000	-63.458700	0.161817	0.000000	-0.965430	18.638100	-7.153340	-10.459700
3.090000	3.338590	283.483000	59.390900	0.168238	0.000000	-1.447540	-16.538500	4.877150	-8.418170	2.501860	296.518000	-62.310300	0.161595	0.000000	-0.966564	18.809700	-7.071050	-10.438100
3.095000	3.815970	283.107000	60.316700	0.167151	0.000000	-1.448500	-16.242300	4.945670	-8.714970	1.925950	296.682000	-61.212400	0.161652	0.000000	-0.965897	18.631600	-6.918240	-10.459200
3.100000	4.122500	282.925000	59.820900	0.167236	0.000000	-1.448140	-16.332900	4.796500	-8.720560	1.152310	293.956000	-60.533700	0.161212	0.000000	-0.966390	18.616300	-6.892860	-10.481100
3.105000	4.153850	282.154000	60.150300	0.166488	0.000000	-1.448410	-16.211200	4.764140	-8.920560	1.197510	291.977000	-59.396100	0.161098	0.000000	-0.966561	18.540500	-6.709760	-10.479100
3.110000	3.829970	281.420000	60.116100	0.166561	0.000000	-1.448500	-16.148300	4.647770	-8.894140	1.291240	286.598000	-59.154700	0.160261	0.000000	-0.966268	18.113000	-6.745960	-10.498700
3.115000	4.130710	279.877000	60.134400	0.166188	0.000000	-1.448910	-15.941900	4.712990	-8.938250	1.226280	281.747000	-58.063400	0.158926	0.000000	-0.967070	18.033900	-6.497040	-10.741200
3.120000	4.270070	275.334000	60.079600	0.165541	0.000000	-1.448200	-15.880600	4.428040	-9.027150	1.764970	278.440000	-57.036100	0.158074	0.000000	-0.967000	17.794500	-6.531790	-10.848700
3.125000	3.872770	277.692000	59.982500	0.166803	0.000000	-1.449370	-15.697700	4.307150	-8.765540	2.059340	274.715000	-56.357100	0.156976	0.000000	-0.965793	17.220700	-6.505320	-11.008700
3.130000	3.869670	275.550000	60.042300	0.166179	0.000000	-1.449030	-15.671300	4.217480	-8.890910	3.013280	267.993000	-55.823300	0.155896	0.000000	-0.965655	16.748800	-6.414540	-11.035400
3.135000	4.403110	275.940000	59.624600	0.166801	0.000000	-1.447800	-16.028300	4.191960	-8.738310	2.356570	264.159000	-54.860900	0.154864	0.000000	-0.965744	16.542100	-6.244550	-11.171200
3.140000	4.315150	272.430000	58.998500	0.168097	0.000000	-1.446930	-16.061500	4.089970	-8.268500	2.475000	257.328000	-53.798500	0.152957	0.000000	-0.966128	16.212100	-6.074300	-11.397300
3.145000	3.011260	269.619000	57.994400	0.167839	0.000000	-1.446280	-16.079900	3.930860	-8.265690	2.699460	251.802000	-52.853400	0.151593	0.000000	-0.965360	15.666400	-6.078930	-11.485400
3.150000	1.823030	267.733000	56.902300	0.169655	0.000000	-1.446060	-16.035700	3.663910	-7.735980	2.064180	247.017000	-52.049900	0.150492	0.000000	-0.965949	15.523100	-5.855380	-11.565900
3.155000	0.273973	264.221000	56.253800	0.169997	0.000000	-1.442390	-16.805000	3.430610	-7.560090	2.001050	243.769000	-50.348700	0.149102	0.000000	-0.964933	15.072100	-5.760010	-11.772700
3.160000	-0.873833	271.053000	56.643200	0.172835	0.000000	-1.443380	-16.980100	3.197900	-7.005070	1.999200	237.974000	-49.416000	0.147184	0.000000	-0.966409	15.065000	-5.659160	-11.961900
3.165000	-0.425121	275.040000	56.668000	0.174464	0.000000	-1.442690	-17.415000	3.269230	-6.642580	3.033270	231.464000	-47.974800	0.145335	0.000000	-0.965656	14.465900	-5.619070	-12.071400
3.170000	0.280117	280.027000	57.463500	0.175529	0.000000	-1.441950	-17.934500	3.192890	-6.489710	4.743890	227.563000	-47.875700	0.143565	0.000000	-0.964327	13.902500	-5.552080	-12.304100
3.175000	0.930779	286.121000	57.778900	0.176333	0.000000	-1.441990	-18.307800	3.083980	-6.437070	6.420430	222.934000	-47.909800	0.142287	0.000000	-0.964768	13.699000	-5.637730	-12.334000
3.180000	2.169020	291.466000	58.643900	0.176772	0.000000	-1.441680	-18.735100	3.098320	-6.448880	7.899670	215.975000	-47.004200	0.140473	0.000000	-0.965134	13.339200	-5.480330	-12.379400
3.185000	2.722950	293.489000	60.021200	0.176708	0.000000	-1.441310	-18.969800	3.180290	-6.507450	7.952910	210.030000	-46.844700	0.138399	0.000000	-0.966374	13.235700	-5.366820	-12.497200
3.190000	3.846320	297.268000	60.743600	0.177702	0.000000	-1.441610	-19.121900	3.058950	-6.330940	8.030720	204.834000	-46.355500	0.136931	0.000000	-0.964386	12.501200	-5.270960	-12.499000
3.195000	4.451150	296.829000	61.162700	0.177046	0.000000	-1.440810	-19.332400	2.956620	-6.553210	7.639450	203.999000	-45.871700	0.136428	0.000000	-0.965409	12.664100	-5.185960	-12.565400
3.200000	5.152440	298.657000	61.760200	0.177637	0.000000	-1.442240	-19.022200	2.926970	-6.426990	7.654840	198.324000	-45.683000	0.133934	0.000000	-0.965842	12.403100	-5.054540	-12.744100
3.205000	4.209730	295.484000	62.122300	0.177019	0.000000	-1.440970	-19.199500	2.741120	-6.572080	8.568500	196.038000	-44.797800	0.133963	0.000000	-0.965139	12.111900	-5.085700	-12.581400
3.210000	4.122340	292.981000	61.802000	0.176995	0.000000	-1.442020	-18.731200	2.715790	-6.522750	8.653200	196.085000	-44.121000	0.133954	0.000000	-0.962890	11.671600	-5.062480	-12.583900
